<svg xmlns="http://www.w3.org/2000/svg" viewBox="0 0 512 512" width="512" height="512"><defs><linearGradient id="g" x1="0" y1="0" x2="0" y2="1"><stop offset="0" stop-color="#2a7fc8"></stop><stop offset="1" stop-color="#0a3f80"></stop></linearGradient></defs><rect width="512" height="512" rx="112" fill="url(#g)"></rect><g transform="translate(256 256) scale(0.8) translate(-256 -256)"><path d="M256 70 A93 93 0 0 1 256 256 A93 93 0 0 0 256 442 A186 186 0 0 1 256 70 Z" fill="#ffffff" fill-opacity="1"></path><path d="M256 70 A93 93 0 0 1 256 256 A93 93 0 0 0 256 442 A186 186 0 0 0 256 70 Z" fill="#bcdcff" fill-opacity="1"></path></g></svg>