<svg xmlns="http://www.w3.org/2000/svg" viewBox="0 0 48 48" fill="none">
  <g stroke="#fff" stroke-width="3" stroke-linecap="round" stroke-linejoin="round">
    <circle cx="24" cy="24" r="10"/>
    <circle cx="24" cy="24" r="4"/>
    <rect x="22" y="3" width="4" height="7" rx="1"/>
    <rect x="22" y="3" width="4" height="7" rx="1" transform="rotate(45 24 24)"/>
    <rect x="22" y="3" width="4" height="7" rx="1" transform="rotate(90 24 24)"/>
    <rect x="22" y="3" width="4" height="7" rx="1" transform="rotate(135 24 24)"/>
    <rect x="22" y="3" width="4" height="7" rx="1" transform="rotate(180 24 24)"/>
    <rect x="22" y="3" width="4" height="7" rx="1" transform="rotate(225 24 24)"/>
    <rect x="22" y="3" width="4" height="7" rx="1" transform="rotate(270 24 24)"/>
    <rect x="22" y="3" width="4" height="7" rx="1" transform="rotate(315 24 24)"/>
  </g>
</svg>
