<svg xmlns="http://www.w3.org/2000/svg" viewBox="0 0 512 512" width="512" height="512"><g transform="translate(256 256) scale(1) translate(-256 -256)"><path d="M256 70 A94 94 0 0 1 256 196 L232 196 L250 162 L272 308 L289 236 L256 236 L256 264 A96 96 0 0 0 256 442 A186 186 0 0 1 256 70 Z" fill="#0C4890" fill-opacity="1"></path><path d="M256 70 A94 94 0 0 1 256 196 L232 196 L250 162 L272 308 L289 236 L256 236 L256 264 A96 96 0 0 0 256 442 A186 186 0 0 0 256 70 Z" fill="#0C4890" fill-opacity="0.45"></path></g></svg>